name C:\Users\u0101727\Documents\MyRepositories\upper-imu-dc\Results\main_mocap_tracking\Case_6\kinematics.mot
datacolumns 15
datarows 25
range 0.50000000 0.74000000
endheader 
time	ground_thorax_rot_x	ground_thorax_rot_y	ground_thorax_rot_z	clav_prot	clav_elev	scapula_abduction	scapula_elevation	scapula_upward_rot	scapula_winging	plane_elv	shoulder_elv	axial_rot	elbow_flexion	pro_sup	
          0.50000000	          2.47969243	         -4.86758727	         -6.15343581	        -22.78634475	         -6.29702199	        -12.62705160	         -5.45027389	         12.64548398	          6.20386637	        -26.23008269	         12.03736958	         42.88496364	          0.25376768	         34.29067070	
          0.51000000	          2.32765138	         -4.89134905	         -6.72934825	        -22.80362829	         -6.26625414	        -12.66879293	         -5.44294042	         12.56707651	          6.20021793	        -25.88563493	         12.10499412	         42.54131586	          0.22840920	         34.29209969	
          0.52000000	          2.19577478	         -4.90085382	         -7.27530038	        -22.80787112	         -6.24734019	        -12.70577319	         -5.41702273	         12.52278170	          6.20374499	        -25.49269124	         12.18369610	         42.13623186	          0.21206459	         34.29320118	
          0.53000000	          2.08178662	         -4.89944212	         -7.78447569	        -22.81055190	         -6.23250015	        -12.73530297	         -5.39588982	         12.48516077	          6.20718729	        -25.04246782	         12.28023931	         41.64864342	          0.19460060	         34.29497191	
          0.54000000	          1.98388593	         -4.89055723	         -8.25307573	        -22.80948026	         -6.21976604	        -12.75964486	         -5.37533589	         12.44444934	          6.21202869	        -24.52828869	         12.39397270	         41.06386235	          0.17470888	         34.29731982	
          0.55000000	          1.90028819	         -4.87748525	         -8.67947247	        -22.80392048	         -6.20817350	        -12.78029611	         -5.35339974	         12.39618324	          6.21893761	        -23.94612331	         12.52249932	         40.37192534	          0.15246147	         34.30005374	
          0.56000000	          1.82926640	         -4.86298319	         -9.06346405	        -22.79438376	         -6.19763546	        -12.79869632	         -5.32978693	         12.33939724	          6.22813247	        -23.29569911	         12.66210336	         39.57217058	          0.12828637	         34.30302202	
          0.57000000	          1.76921814	         -4.84909081	         -9.40575161	        -22.78229223	         -6.18868682	        -12.81623772	         -5.30541494	         12.27570688	          6.23948662	        -22.58216396	         12.80767996	         38.68124806	          0.10282148	         34.30608513	
          0.58000000	          1.71870874	         -4.83714193	         -9.70760862	        -22.76940570	         -6.18217191	        -12.83388640	         -5.28189654	         12.20837864	          6.25260701	        -21.81512318	         12.95315813	         37.73198475	          0.07671845	         34.30913255	
          0.59000000	          1.67646619	         -4.82791616	         -9.97070876	        -22.75741083	         -6.17938228	        -12.85202389	         -5.26135861	         12.14132151	          6.26710990	        -21.00631031	         13.09261305	         36.76598954	          0.05075923	         34.31208166	
          0.60000000	          1.64138010	         -4.82179396	        -10.19701297	        -22.74760528	         -6.18197895	        -12.87036429	         -5.24615966	         12.07831115	          6.28276422	        -20.16760795	         13.22113471	         35.82727830	          0.02623875	         34.31480704	
          0.61000000	          1.61256396	         -4.81883681	        -10.38864392	        -22.74054474	         -6.19096323	        -12.88801155	         -5.23787199	         12.02222779	          6.29927462	        -19.30747150	         13.33528722	         34.95294784	          0.00461254	         34.31715278	
          0.62000000	          1.58939196	         -4.81886688	        -10.54780026	        -22.73602995	         -6.20618527	        -12.90390885	         -5.23672941	         11.97441442	          6.31625387	        -18.42774355	         13.43384814	         34.16217006	         -0.01332855	         34.31904314	
          0.63000000	          1.57144080	         -4.82158553	        -10.67674078	        -22.73345798	         -6.22716437	        -12.91722668	         -5.24229097	         11.93472131	          6.33353635	        -17.52508074	         13.51840832	         33.45401182	         -0.02737462	         34.32047951	
          0.64000000	          1.55844573	         -4.82663432	        -10.77775490	        -22.73216110	         -6.25338563	        -12.92743392	         -5.25389555	         11.90228617	          6.35111568	        -16.59437954	         13.59268585	         32.81284812	         -0.03750524	         34.32147270	
          0.65000000	          1.55029097	         -4.83361701	        -10.85312132	        -22.73171617	         -6.28389504	        -12.93452769	         -5.27055149	         11.87622956	          6.36883718	        -15.62987957	         13.66141046	         32.21152517	         -0.04404642	         34.32205961	
          0.66000000	          1.54693259	         -4.84218680	        -10.90512552	        -22.73216142	         -6.31779896	        -12.93939020	         -5.29129079	         11.85548423	          6.38663378	        -14.62470076	         13.73041087	         31.61204258	         -0.04755599	         34.32231826	
          0.67000000	          1.54830634	         -4.85213168	        -10.93607913	        -22.73381065	         -6.35504116	        -12.94347222	         -5.31567515	         11.83847933	          6.40488668	        -13.57172977	         13.80686750	         30.97103046	         -0.04831877	         34.32231984	
          0.68000000	          1.55432783	         -4.86337311	        -10.94827553	        -22.73677985	         -6.39585425	        -12.94772867	         -5.34351854	         11.82380036	          6.42404112	        -12.46565209	         13.89789688	         30.25023775	         -0.04643141	         34.32210615	
          0.69000000	          1.56490697	         -4.87597929	        -10.94395804	        -22.74053526	         -6.43967629	        -12.95167803	         -5.37421214	         11.81090617	          6.44400316	        -11.30299456	         14.00886120	         29.42303264	         -0.04232187	         34.32172129	
          0.70000000	          1.57987109	         -4.89026076	        -10.92535691	        -22.74354079	         -6.48523373	        -12.95310005	         -5.40661467	         11.79955431	          6.46428767	        -10.08002426	         14.14368174	         28.47292430	         -0.03679578	         34.32122959	
          0.71000000	          1.59886742	         -4.90682430	        -10.89471694	        -22.74316329	         -6.53142196	        -12.94813572	         -5.43951177	         11.78898604	          6.48454061	         -8.79247911	         14.30600340	         27.39057465	         -0.03071043	         34.32070129	
          0.72000000	          1.62134662	         -4.92649578	        -10.85425717	        -22.73602565	         -6.57762420	        -12.93157701	         -5.47200048	         11.77836603	          6.50457108	         -7.43849990	         14.49900557	         26.17409778	         -0.02468495	         34.32018519	
          0.73000000	          1.64662077	         -4.95017214	        -10.80609450	        -22.71854338	         -6.62315178	        -12.89732857	         -5.50336416	         11.76782209	          6.52390953	         -6.02094298	         14.72422519	         24.82922902	         -0.01903514	         34.31969587	
          0.74000000	          1.67392448	         -4.97867681	        -10.75217523	        -22.68739225	         -6.66673416	        -12.83927390	         -5.53273022	         11.75853435	          6.54160153	         -4.54598602	         14.98117142	         23.36696061	         -0.01400692	         34.31924038	
